<mxfile host="app.diagrams.net" modified="2024-05-12T21:19:58.829Z" agent="Mozilla/5.0 (Windows NT 10.0; Win64; x64) AppleWebKit/537.36 (KHTML, like Gecko) Chrome/124.0.0.0 Safari/537.36" etag="s-Dm_FS2cWC9xRLd1pi5" version="24.4.0" type="device">
  <diagram name="Page-1" id="wYVp0mTzLEkUnLxFyJeC">
    <mxGraphModel dx="2345" dy="1040" grid="0" gridSize="10" guides="1" tooltips="1" connect="1" arrows="1" fold="1" page="0" pageScale="1" pageWidth="850" pageHeight="1100" math="0" shadow="0">
      <root>
        <mxCell id="0" />
        <mxCell id="1" parent="0" />
        <mxCell id="nq-oS-DJIw11fGvRAUGL-1" value="" style="whiteSpace=wrap;strokeWidth=2;" vertex="1" parent="1">
          <mxGeometry x="119" y="111" width="49" height="33" as="geometry" />
        </mxCell>
        <mxCell id="nq-oS-DJIw11fGvRAUGL-2" value="clear" style="whiteSpace=wrap;strokeWidth=2;" vertex="1" parent="1">
          <mxGeometry x="118" y="194" width="52" height="33" as="geometry" />
        </mxCell>
        <mxCell id="nq-oS-DJIw11fGvRAUGL-3" value="console" style="whiteSpace=wrap;strokeWidth=2;" vertex="1" parent="1">
          <mxGeometry x="272" y="278" width="69" height="33" as="geometry" />
        </mxCell>
        <mxCell id="nq-oS-DJIw11fGvRAUGL-4" value="restaurantFilenames" style="whiteSpace=wrap;strokeWidth=2;" vertex="1" parent="1">
          <mxGeometry x="225" y="361" width="162" height="33" as="geometry" />
        </mxCell>
        <mxCell id="nq-oS-DJIw11fGvRAUGL-5" value="locations" style="whiteSpace=wrap;strokeWidth=2;" vertex="1" parent="1">
          <mxGeometry x="266" y="445" width="79" height="33" as="geometry" />
        </mxCell>
        <mxCell id="nq-oS-DJIw11fGvRAUGL-6" value="restaurantObjects" style="whiteSpace=wrap;strokeWidth=2;" vertex="1" parent="1">
          <mxGeometry x="234" y="528" width="145" height="33" as="geometry" />
        </mxCell>
        <mxCell id="nq-oS-DJIw11fGvRAUGL-7" value="lastInRestaurantFiles" style="whiteSpace=wrap;strokeWidth=2;" vertex="1" parent="1">
          <mxGeometry x="224" y="611" width="164" height="33" as="geometry" />
        </mxCell>
        <mxCell id="nq-oS-DJIw11fGvRAUGL-8" value="printAllRestaurantsAndLocations" style="whiteSpace=wrap;strokeWidth=2;" vertex="1" parent="1">
          <mxGeometry x="20" y="713" width="247" height="33" as="geometry" />
        </mxCell>
        <mxCell id="nq-oS-DJIw11fGvRAUGL-9" value="numberForNavigation" style="whiteSpace=wrap;strokeWidth=2;" vertex="1" parent="1">
          <mxGeometry x="59" y="797" width="169" height="33" as="geometry" />
        </mxCell>
        <mxCell id="nq-oS-DJIw11fGvRAUGL-10" value="is number &#39;q&#39; or a number" style="rhombus;strokeWidth=2;whiteSpace=wrap;" vertex="1" parent="1">
          <mxGeometry x="28" y="880" width="231" height="231" as="geometry" />
        </mxCell>
        <mxCell id="nq-oS-DJIw11fGvRAUGL-11" value="selectRestaurant" style="whiteSpace=wrap;strokeWidth=2;" vertex="1" parent="1">
          <mxGeometry x="76" y="1179" width="135" height="33" as="geometry" />
        </mxCell>
        <mxCell id="nq-oS-DJIw11fGvRAUGL-12" value="restaurantDisplayFoods" style="whiteSpace=wrap;strokeWidth=2;" vertex="1" parent="1">
          <mxGeometry x="455" y="111" width="181" height="33" as="geometry" />
        </mxCell>
        <mxCell id="nq-oS-DJIw11fGvRAUGL-13" value="printQtoReturnRestaurants" style="whiteSpace=wrap;strokeWidth=2;" vertex="1" parent="1">
          <mxGeometry x="442" y="194" width="207" height="33" as="geometry" />
        </mxCell>
        <mxCell id="nq-oS-DJIw11fGvRAUGL-14" value="waitForQtoRestaurants" style="whiteSpace=wrap;strokeWidth=2;" vertex="1" parent="1">
          <mxGeometry x="456" y="278" width="180" height="33" as="geometry" />
        </mxCell>
        <mxCell id="nq-oS-DJIw11fGvRAUGL-15" value="wairForQtoRestaurant" style="whiteSpace=wrap;strokeWidth=2;" vertex="1" parent="1">
          <mxGeometry x="219" y="194" width="173" height="33" as="geometry" />
        </mxCell>
        <mxCell id="nq-oS-DJIw11fGvRAUGL-16" value="createRestaurantAtCurrentIndex" style="whiteSpace=wrap;strokeWidth=2;" vertex="1" parent="1">
          <mxGeometry x="317" y="713" width="248" height="33" as="geometry" />
        </mxCell>
        <mxCell id="nq-oS-DJIw11fGvRAUGL-17" value="" style="curved=1;startArrow=none;endArrow=block;exitX=0.5002550397600446;exitY=1.0121212583599668;entryX=0.49062494131234974;entryY=0.012121258359966856;rounded=0;fontSize=12;startSize=8;endSize=8;" edge="1" parent="1" source="nq-oS-DJIw11fGvRAUGL-1" target="nq-oS-DJIw11fGvRAUGL-2">
          <mxGeometry relative="1" as="geometry">
            <Array as="points" />
          </mxGeometry>
        </mxCell>
        <mxCell id="nq-oS-DJIw11fGvRAUGL-18" value="" style="curved=1;startArrow=none;endArrow=block;exitX=0.49062494131234974;exitY=1.0242425167199336;entryX=-0.0062840503195057745;entryY=0.23232630671202859;rounded=0;fontSize=12;startSize=8;endSize=8;" edge="1" parent="1" source="nq-oS-DJIw11fGvRAUGL-2" target="nq-oS-DJIw11fGvRAUGL-3">
          <mxGeometry relative="1" as="geometry">
            <Array as="points">
              <mxPoint x="144" y="253" />
            </Array>
          </mxGeometry>
        </mxCell>
        <mxCell id="nq-oS-DJIw11fGvRAUGL-19" value="" style="curved=1;startArrow=none;endArrow=block;exitX=0.49249314570772473;exitY=1.0060607447768704;entryX=0.4998890558878581;entryY=0.006060744776870265;rounded=0;fontSize=12;startSize=8;endSize=8;" edge="1" parent="1" source="nq-oS-DJIw11fGvRAUGL-3" target="nq-oS-DJIw11fGvRAUGL-4">
          <mxGeometry relative="1" as="geometry">
            <Array as="points" />
          </mxGeometry>
        </mxCell>
        <mxCell id="nq-oS-DJIw11fGvRAUGL-20" value="" style="curved=1;startArrow=none;endArrow=block;exitX=0.4998890558878581;exitY=1.0181820031368372;entryX=0.5061016082763672;entryY=-0.012121027166193182;rounded=0;fontSize=12;startSize=8;endSize=8;" edge="1" parent="1" source="nq-oS-DJIw11fGvRAUGL-4" target="nq-oS-DJIw11fGvRAUGL-5">
          <mxGeometry relative="1" as="geometry">
            <Array as="points" />
          </mxGeometry>
        </mxCell>
        <mxCell id="nq-oS-DJIw11fGvRAUGL-21" value="" style="curved=1;startArrow=none;endArrow=block;exitX=0.5061016082763672;exitY=1.0000002311937737;entryX=0.49642777278505523;entryY=2.3119377367424243e-7;rounded=0;fontSize=12;startSize=8;endSize=8;" edge="1" parent="1" source="nq-oS-DJIw11fGvRAUGL-5" target="nq-oS-DJIw11fGvRAUGL-6">
          <mxGeometry relative="1" as="geometry">
            <Array as="points" />
          </mxGeometry>
        </mxCell>
        <mxCell id="nq-oS-DJIw11fGvRAUGL-22" value="" style="curved=1;startArrow=none;endArrow=block;exitX=0.49642777278505523;exitY=1.0121214895537405;entryX=0.49989040886483543;entryY=0.01212148955374053;rounded=0;fontSize=12;startSize=8;endSize=8;" edge="1" parent="1" source="nq-oS-DJIw11fGvRAUGL-6" target="nq-oS-DJIw11fGvRAUGL-7">
          <mxGeometry relative="1" as="geometry">
            <Array as="points" />
          </mxGeometry>
        </mxCell>
        <mxCell id="nq-oS-DJIw11fGvRAUGL-23" value="Yes" style="curved=1;startArrow=none;endArrow=block;exitX=0.17485791494847305;exitY=1.0242427479137073;entryX=0.5000505949321546;entryY=0.0060609181722005205;rounded=0;fontSize=12;startSize=8;endSize=8;" edge="1" parent="1" source="nq-oS-DJIw11fGvRAUGL-7" target="nq-oS-DJIw11fGvRAUGL-8">
          <mxGeometry relative="1" as="geometry">
            <Array as="points">
              <mxPoint x="144" y="679" />
            </Array>
          </mxGeometry>
        </mxCell>
        <mxCell id="nq-oS-DJIw11fGvRAUGL-24" value="" style="curved=1;startArrow=none;endArrow=block;exitX=0.5000505949321546;exitY=1.0181821765321675;entryX=0.5000739464393029;entryY=-0.012120853770862926;rounded=0;fontSize=12;startSize=8;endSize=8;" edge="1" parent="1" source="nq-oS-DJIw11fGvRAUGL-8" target="nq-oS-DJIw11fGvRAUGL-9">
          <mxGeometry relative="1" as="geometry">
            <Array as="points" />
          </mxGeometry>
        </mxCell>
        <mxCell id="nq-oS-DJIw11fGvRAUGL-25" value="" style="curved=1;startArrow=none;endArrow=block;exitX=0.5000739464393029;exitY=1.000000404589104;entryX=0.5000540993430398;entryY=5.779844341856061e-8;rounded=0;fontSize=12;startSize=8;endSize=8;" edge="1" parent="1" source="nq-oS-DJIw11fGvRAUGL-9" target="nq-oS-DJIw11fGvRAUGL-10">
          <mxGeometry relative="1" as="geometry">
            <Array as="points" />
          </mxGeometry>
        </mxCell>
        <mxCell id="nq-oS-DJIw11fGvRAUGL-26" value="Yes" style="curved=1;startArrow=none;endArrow=block;exitX=0.5000540993430398;exitY=1.0000270744422814;entryX=0.5000925699869792;entryY=0.012310721657492897;rounded=0;fontSize=12;startSize=8;endSize=8;" edge="1" parent="1" source="nq-oS-DJIw11fGvRAUGL-10" target="nq-oS-DJIw11fGvRAUGL-11">
          <mxGeometry relative="1" as="geometry">
            <Array as="points" />
          </mxGeometry>
        </mxCell>
        <mxCell id="nq-oS-DJIw11fGvRAUGL-27" value="" style="curved=1;startArrow=none;endArrow=block;exitX=0.5012214723871558;exitY=1.0121212583599668;entryX=0.5010680507346628;entryY=0.012121258359966856;rounded=0;fontSize=12;startSize=8;endSize=8;" edge="1" parent="1" source="nq-oS-DJIw11fGvRAUGL-12" target="nq-oS-DJIw11fGvRAUGL-13">
          <mxGeometry relative="1" as="geometry">
            <Array as="points" />
          </mxGeometry>
        </mxCell>
        <mxCell id="nq-oS-DJIw11fGvRAUGL-28" value="" style="curved=1;startArrow=none;endArrow=block;exitX=0.5010680507346628;exitY=1.0242425167199336;entryX=0.4984504805670844;entryY=-0.006060513583096591;rounded=0;fontSize=12;startSize=8;endSize=8;" edge="1" parent="1" source="nq-oS-DJIw11fGvRAUGL-13" target="nq-oS-DJIw11fGvRAUGL-14">
          <mxGeometry relative="1" as="geometry">
            <Array as="points" />
          </mxGeometry>
        </mxCell>
        <mxCell id="nq-oS-DJIw11fGvRAUGL-29" value="" style="curved=1;startArrow=none;endArrow=block;exitX=0.5027862835481677;exitY=1.0242425167199336;entryX=0.49249314570772473;entryY=-0.006060513583096591;rounded=0;fontSize=12;startSize=8;endSize=8;" edge="1" parent="1" source="nq-oS-DJIw11fGvRAUGL-15" target="nq-oS-DJIw11fGvRAUGL-3">
          <mxGeometry relative="1" as="geometry">
            <Array as="points" />
          </mxGeometry>
        </mxCell>
        <mxCell id="nq-oS-DJIw11fGvRAUGL-30" value="No" style="curved=1;startArrow=none;endArrow=block;exitX=0.635169139400842;exitY=1.0242427479137073;entryX=0.411436123445396;entryY=0.0060609181722005205;rounded=0;fontSize=12;startSize=8;endSize=8;" edge="1" parent="1" source="nq-oS-DJIw11fGvRAUGL-7" target="nq-oS-DJIw11fGvRAUGL-16">
          <mxGeometry relative="1" as="geometry">
            <Array as="points">
              <mxPoint x="374" y="679" />
            </Array>
          </mxGeometry>
        </mxCell>
        <mxCell id="nq-oS-DJIw11fGvRAUGL-31" value="" style="curved=1;startArrow=none;endArrow=block;exitX=0.5399292223169027;exitY=0.0060609181722005205;entryX=0.8294757767187297;entryY=1.0242427479137073;rounded=0;fontSize=12;startSize=8;endSize=8;" edge="1" parent="1" source="nq-oS-DJIw11fGvRAUGL-16" target="nq-oS-DJIw11fGvRAUGL-7">
          <mxGeometry relative="1" as="geometry">
            <Array as="points">
              <mxPoint x="471" y="679" />
            </Array>
          </mxGeometry>
        </mxCell>
      </root>
    </mxGraphModel>
  </diagram>
</mxfile>
